<?xml version="1.0" encoding="utf-8"?>
<!-- Generator: Adobe Illustrator 23.0.0, SVG Export Plug-In . SVG Version: 6.00 Build 0)  -->
<svg version="1.1" id="Layer_1" xmlns="http://www.w3.org/2000/svg" xmlns:xlink="http://www.w3.org/1999/xlink" x="0px" y="0px"
	 viewBox="0 0 35 35" style="enable-background:new 0 0 35 35;" xml:space="preserve">
<style type="text/css">
	.st0{fill:#2BACE2;}
	.st1{fill:#BBE5F7;}
	.st2{fill:#666767;}
	.st3{fill:#F066A6;}
</style>
<g>
	<path class="st0" d="M17.28,15.71c0.93,4.21,0.37,5.33,1.48,8.15c2.67,6.75,8.97,8.03,8.9,8.31c-0.14,0.54-24.34-3.62-25.38-16.45
		C1.75,9.33,6.4,1.75,9.77,2.11C13.51,2.51,16.35,11.5,17.28,15.71z"/>
	<path class="st1" d="M4.64,6.82c0.75-0.05,0.99,1.75,3.11,6.37c1.33,2.9,2.77,5.99,5.14,8.87c1.32,1.6,2.82,3.01,3.05,3.23
		c0.99,0.93,1.89,1.65,2.69,2.26c4.06,3.07,7.68,4.57,7.65,4.71C26.18,32.6,4.15,28.7,2.29,16.41C1.65,12.19,3.37,6.91,4.64,6.82z"
		/>
	<ellipse class="st2" cx="8.3" cy="11.13" rx="0.25" ry="0.33"/>
	<path class="st0" d="M25.52,27.64c-0.41,1.35-0.62,2.03-0.54,2.68c0.12,0.99,0.76,1.91,1.59,2.15c0.72,0.2,1.63-0.1,2.05-0.94
		c0.33-0.64,0.31-1.48,0.3-2.15c-0.01-0.51-0.06-0.6-0.07-1.31c-0.01-0.72,0.04-0.87,0.05-1.52c0-0.3,0-0.99-0.13-1.76
		C28.65,24,28.48,23,28.13,22.93c-0.19-0.04-0.29,0.24-1.37,2.03c-0.35,0.59-0.52,0.85-0.74,1.34
		C25.93,26.49,25.74,26.94,25.52,27.64z"/>
	<path class="st0" d="M29.22,28.02c-1.01-0.59-1.51-0.88-2.01-0.79c-0.75,0.13-1.47,0.94-1.67,2.03c-0.18,0.94,0.02,2.16,0.64,2.75
		c0.47,0.45,1.11,0.46,1.61,0.47c0.38,0.01,0.45-0.07,0.99-0.06c0.55,0.01,0.66,0.09,1.15,0.11c0.22,0.01,0.75,0.03,1.34-0.11
		c0.6-0.15,1.36-0.33,1.42-0.8c0.03-0.26-0.17-0.39-1.49-1.88c-0.43-0.49-0.63-0.72-0.99-1.02C30.07,28.6,29.75,28.33,29.22,28.02z"
		/>
	<path class="st0" d="M14.94,20.74c0.3,1.56,0.28,3.98-0.49,4.39c-0.93,0.49-3.12-1.84-3.05-4.39c0.05-1.5,0.89-3.23,1.77-3.2
		C14.31,17.56,14.89,20.45,14.94,20.74z"/>
	<ellipse class="st3" cx="9.25" cy="13.65" rx="1.02" ry="0.9"/>
</g>
</svg>
