<?xml version="1.0" encoding="utf-8"?>
<!-- Generator: Adobe Illustrator 23.0.0, SVG Export Plug-In . SVG Version: 6.00 Build 0)  -->
<svg version="1.1" id="Layer_1" xmlns="http://www.w3.org/2000/svg" xmlns:xlink="http://www.w3.org/1999/xlink" x="0px" y="0px"
	 viewBox="0 0 35 35" style="enable-background:new 0 0 35 35;" xml:space="preserve">
<style type="text/css">
	.st0{fill:#F4E02C;}
</style>
<path class="st0" d="M25.87,31.82l-7.18-3.49c-0.6-0.29-1.3-0.28-1.89,0.03l-7.09,3.68c-1.48,0.77-3.24-0.42-2.98-2.01L8,22.42
	c0.11-0.63-0.12-1.27-0.61-1.71l-5.84-5.3c-1.22-1.11-0.58-3.07,1.09-3.33l7.97-1.21c0.66-0.1,1.23-0.51,1.52-1.08l3.48-6.95
	c0.73-1.45,2.88-1.48,3.65-0.05l3.65,6.86c0.3,0.57,0.88,0.96,1.54,1.04l7.99,1c1.67,0.21,2.36,2.16,1.17,3.3l-5.71,5.45
	c-0.47,0.45-0.68,1.1-0.56,1.73l1.46,7.57C29.1,31.31,27.37,32.55,25.87,31.82z"/>
</svg>
