<?xml version="1.0" encoding="utf-8"?>
<!-- Generator: Adobe Illustrator 23.0.0, SVG Export Plug-In . SVG Version: 6.00 Build 0)  -->
<svg version="1.1" id="Layer_1" xmlns="http://www.w3.org/2000/svg" xmlns:xlink="http://www.w3.org/1999/xlink" x="0px" y="0px"
	 viewBox="0 0 10 10" style="enable-background:new 0 0 10 10;" xml:space="preserve">
<style type="text/css">
	.st0{fill:#2B9ED9;}
	.st1{fill:#FFFFFF;}
</style>
<g>
	<g>
		<path class="st0" d="M8.03,5.19c0.09,0.34,0.38,1.61-0.4,2.75c-0.82,1.2-2.19,1.35-2.49,1.37c-0.2,0.02-1.99,0.13-2.92-1.2
			C1.33,6.84,1.94,5.26,2.05,4.98C2.06,4.95,2.3,4.53,2.77,3.69c0.18-0.32,0.57-1.01,1.07-1.85C4.68,0.42,4.8,0.3,4.97,0.3
			c0.34,0,0.42,0.51,1.37,1.98C6.78,2.95,6.86,3,7.22,3.6C7.68,4.37,7.91,4.76,8.03,5.19z"/>
		<path class="st1" d="M2.87,7.75c0.53,0.88,1.33,1.2,1.3,1.24C4.14,9.04,2.89,8.65,2.41,7.55C2.04,6.73,2.25,5.87,2.33,5.87
			C2.41,5.86,2.3,6.81,2.87,7.75z"/>
	</g>
	<path class="st1" d="M2.45,5.42c0,0.04,0,0.08-0.04,0.11C2.38,5.55,2.33,5.54,2.3,5.51c-0.03-0.03-0.01-0.08,0-0.1
		c0.02-0.06,0.08-0.13,0.12-0.12C2.46,5.31,2.45,5.41,2.45,5.42z"/>
</g>
</svg>
