<?xml version="1.0" encoding="utf-8"?>
<!-- Generator: Adobe Illustrator 23.0.0, SVG Export Plug-In . SVG Version: 6.00 Build 0)  -->
<svg version="1.1" id="Layer_1" xmlns="http://www.w3.org/2000/svg" xmlns:xlink="http://www.w3.org/1999/xlink" x="0px" y="0px"
	 viewBox="0 0 35 35" style="enable-background:new 0 0 35 35;" xml:space="preserve">
<style type="text/css">
	.st0{fill:#2BACE2;}
	.st1{fill:#2B9ED9;}
	.st2{fill:#FFFFFF;}
</style>
<path class="st0" d="M24.51,27.97"/>
<g>
	<g>
		<path class="st1" d="M26.93,19.12c0.33,1.21,1.34,5.69-1.41,9.72c-2.88,4.22-7.72,4.76-8.79,4.85c-0.71,0.06-7.02,0.47-10.3-4.24
			c-3.14-4.5-0.99-10.05-0.61-11.06c0.05-0.12,0.88-1.59,2.55-4.53c0.63-1.12,2.02-3.56,3.78-6.53c2.98-5.03,3.4-5.45,3.97-5.45
			c1.19,0,1.49,1.79,4.85,6.97c1.55,2.39,1.84,2.56,3.09,4.67C25.7,16.24,26.51,17.61,26.93,19.12z"/>
		<path class="st2" d="M8.72,28.16c1.89,3.11,4.68,4.23,4.59,4.37c-0.11,0.17-4.49-1.22-6.21-5.07c-1.29-2.89-0.54-5.94-0.28-5.96
			C7.1,21.49,6.7,24.84,8.72,28.16z"/>
	</g>
	<path class="st2" d="M7.26,19.94c-0.01,0.13-0.01,0.29-0.14,0.38c-0.12,0.08-0.31,0.05-0.4-0.06c-0.09-0.11-0.04-0.27-0.01-0.35
		c0.07-0.22,0.28-0.46,0.41-0.41C7.28,19.54,7.27,19.91,7.26,19.94z"/>
</g>
</svg>
